# AST/ASF file generated using VICON BodyLanguage
# -----------------------------------------------
:version 1.10
:name VICON
:units
  mass 1.0
  length 0.45
  angle deg
:documentation
   .ast/.asf automatically generated from VICON data using
   VICON BodyBuilder and BodyLanguage model FoxedUp or BRILLIANT.MOD
:root
   order TX TY TZ RX RY RZ
   axis XYZ
   position 0 0 0  
   orientation 0 0 0 
:bonedata
  begin
     id 1 
     name lhipjoint
     direction 0.578396 -0.714046 0.394458 
     length 2.21935 
     axis 0 0 0  XYZ
  end
  begin
     id 2 
     name lfemur
     direction 0.34202 -0.939693 0  
     length 6.39105  
     axis 0 0 20  XYZ
    dof rx ry rz
    limits (-160.0 20.0)
           (-70.0 70.0)
           (-60.0 70.0)
  end
  begin
     id 3 
     name ltibia
     direction 0.34202 -0.939693 0   
     length 6.99037   
     axis 0 0 20   XYZ
    dof rx
    limits (-10.0 170.0)
  end
  begin
     id 4 
     name lfoot
     direction 0.0582372 -0.160005 0.985397   
     length 2.06111   
     axis -90 7.62852e-016 20   XYZ
    dof rx rz
    limits (-45.0 90.0)
           (-70.0 20.0)
  end
  begin
     id 5 
     name ltoes
     direction 1.53556e-011 -4.21875e-011 1   
     length 1.04074   
     axis -90 7.62852e-016 20   XYZ
    dof rx
    limits (-90.0 20.0)
  end
  begin
     id 6 
     name rhipjoint
     direction -0.558179 -0.726269 0.40121   
     length 2.182  
     axis 0 0 0  XYZ 
  end
  begin
     id 7 
     name rfemur
     direction -0.34202 -0.939693 0   
     length 6.51172   
     axis 0 0 -20   XYZ
    dof rx ry rz
    limits (-160.0 20.0)
           (-70.0 70.0)
           (-70.0 60.0)
  end
  begin
     id 8 
     name rtibia
     direction -0.34202 -0.939693 0   
     length 7.02607   
     axis 0 0 -20   XYZ
    dof rx
    limits (-10.0 170.0)
 end
 begin
     id 9 
     name rfoot
     direction -0.0788856 -0.216737 0.973038   
     length 1.96734  
     axis -90 -7.62852e-016 -20   XYZ
    dof rx rz
    limits (-45.0 90.0)
           (-20.0 70.0)
  end
  begin
     id 10 
     name rtoes
     direction -1.53567e-011 -4.21783e-011 1   
     length 0.990825   
     axis -90 -7.62852e-016 -20   XYZ
    dof rx
    limits (-90.0 20.0)
  end
  begin
     id 11 
     name lowerback
     direction 0.00668177 0.999323 -0.0361741   
     length 1.7655   
     axis 0 0 0   XYZ
    dof rx ry rz
    limits (-20.0 45.0)
           (-30.0 30.0)
           (-30.0 30.0)
  end
  begin
     id 12 
     name upperback
     direction -0.00222086 0.99851 0.0545167   
     length 1.74912   
     axis 0 0 0   XYZ
    dof rx ry rz
    limits (-20.0 45.0)
           (-30.0 30.0)
           (-30.0 30.0)
  end
  begin
     id 13 
     name thorax
     direction -0.00733971 0.997496 0.0703443   
     length 1.75715   
     axis 0 0 0   XYZ
    dof rx ry rz
    limits (-20.0 45.0)
           (-30.0 30.0)
           (-30.0 30.0)
  end
  begin
     id 14 
     name lowerneck
     direction 0.0279797 0.994795 0.0979765   
     length 1.46939   
     axis 0 0 0   XYZ
    dof rx ry rz
    limits (-20.0 45.0)
           (-30.0 30.0)
           (-30.0 30.0)
  end
  begin
     id 15 
     name upperneck
     direction 0.00339187 0.976776 -0.214238   
     length 1.48018   
     axis 0 0 0   XYZ
    dof rx ry rz
    limits (-20.0 45.0)
           (-30.0 30.0)
           (-30.0 30.0)
  end
  begin
     id 16
     name head
     direction -0.00263506 0.996603 -0.0823096  
     length 1.4976  
     axis 0 0 0   XYZ
    dof rx ry rz
    limits (-20.0 45.0)
           (-30.0 30.0)
           (-30.0 30.0)
  end
  begin
     id 17 
     name lclavicle
     direction 0.894044 0.44508 -0.0508781  
     length 3.03024  
     axis 0 0 0   XYZ
    dof ry rz
    limits (-20.0 10.0)
           (0.0 20.0)
  end
  begin
     id 18 
     name lhumerus
     direction 1 -4.48961e-011 -2.39475e-018   
     length 4.4661   
     axis 180 -30 -90   XYZ
    dof rx ry rz
    limits (-60.0 90.0)
           (-90.0 90.0)
           (-90.0 90.0)
  end
  begin
     id 19
     name lradius
     direction 1 -4.48961e-011 9.29328e-028   
     length 3.41414   
     axis 180 -30 -90   XYZ
    dof rx
    limits (-10.0 170.0)
  end
  begin
     id 20
     name lwrist
     direction 1 -4.48985e-011 1.53461e-026   
     length 1.70707   
     axis -1.09697e-014 90 90   XYZ
    dof ry
    limits (-180.0 0.0)
 end
  begin
     id 21 
     name lhand
     direction 1 -4.48966e-011 3.06923e-026   
     length 0.328298   
     axis -1.95843e-014 90 90   XYZ
    dof rx rz
    limits (-90.0 90.0)
           (-45.0 45.0)
  end
  begin
     id 22 
     name lfingers
     direction 1 -4.48893e-011 6.13845e-026   
     length 0.264682   
     axis -3.91686e-014 90 90   XYZ
    dof rx
    limits (0.0 90.0)
  end
  begin
     id 23
     name lthumb
     direction 0.707107 -6.34876e-011 0.707107   
     length 0.380032   
     axis -90 45 2.85299e-015   XYZ
    dof rx rz
    limits (-45.0 45.0)
           (-45.0 45.0)
  end
  begin
     id 24 
     name rclavicle
     direction -0.936955 0.347862 -0.0332887   
     length 3.26927  
     axis 0 0 0   XYZ 
    dof ry rz
    limits (-10.0 20.0)
           (-20.0 0.0)
  end
  begin
     id 25 
     name rhumerus
     direction -1 -4.4896e-011 1.78637e-018  
     length 4.40431   
     axis 180 30 90   XYZ
    dof rx ry rz
    limits (-90.0 60.0)
           (-90.0 90.0)
           (-90.0 90.0)
  end
  begin
     id 26 
     name rradius
     direction -1 -4.48955e-011 9.34036e-027   
     length 3.04688   
     axis 180 30 90   XYZ
    dof rx
    limits (-10.0 170.0)
  end
  begin
     id 27 
     name rwrist
     direction -1 -4.49011e-011 1.53461e-026   
     length 1.52344   
     axis -1.09697e-014 -90 -90   XYZ
    dof ry
    limits (-180.0 0.0)
  end
  begin
     id 28
     name rhand
     direction -1 -4.48834e-011 3.06923e-026   
     length 0.500489   
     axis -1.95843e-014 -90 -90   XYZ
    dof rx rz
    limits (-90.0 90.0)
           (-45.0 45.0)
  end
  begin
     id 29
     name rfingers
     direction -1 -4.48967e-011 6.13845e-026   
     length 0.403507   
     axis -3.91686e-014 -90 -90   XYZ
    dof rx
    limits (0.0 90.0)
  end
  begin
     id 30
     name rthumb
     direction -0.707107 -6.34826e-011 0.707107   
     length 0.579358   
     axis -90 -45 -2.85299e-015   XYZ
    dof rx rz
    limits (-45.0 45.0)
           (-45.0 45.0)
  end
:hierarchy
  begin
    root lhipjoint rhipjoint lowerback
    lhipjoint lfemur
    lfemur ltibia
    ltibia lfoot
    lfoot ltoes
    rhipjoint rfemur
    rfemur rtibia
    rtibia rfoot
    rfoot rtoes
    lowerback upperback
    upperback thorax
    thorax lowerneck lclavicle rclavicle
    lowerneck upperneck
    upperneck head
    lclavicle lhumerus
    lhumerus lradius
    lradius lwrist
    lwrist lhand lthumb
    lhand lfingers
    rclavicle rhumerus
    rhumerus rradius
    rradius rwrist
    rwrist rhand rthumb
    rhand rfingers
  end

#!OML:ASF H:\IndianDance\Patient Classification 1\Patient 1\Session 1\dancer.ASF
:FULLY-SPECIFIED
:DEGREES
430
root -1.4676 15.0045 2.27113 -175.138 -16.0062 -179.325
lowerback 3.73044 3.78736 3.48682
upperback -7.29436 5.1856 4.75398
thorax -9.99445 2.20925 2.54439
lowerneck -18.2448 -2.34348 -3.05313
upperneck 24.9747 -3.07891 0.127879
head 11.1693 -1.92955 0.0522992
rclavicle -2.78299e-015 -2.38542e-014
rhumerus -22.1617 20.7753 -35.9149
rradius 132.934
rwrist -46.3603
rhand 44.4283 -4.59949
rfingers 7.12502
rthumb 65.9483 -10.1141
lclavicle -2.78299e-015 -2.38542e-014
lhumerus 16.1316 21.4673 -2.33452
lradius 26.0035
lwrist 10.3947
lhand 17.1332 41.7537
lfingers 7.12502
lthumb 41.8557 426.392
rfemur -25.7564 -28.4383 21.5394
rtibia 74.7679
rfoot -0.843482 22.789
rtoes 0.298094
lfemur -25.9747 16.1346 -36.0182
ltibia 41.1062
lfoot -14.5029 -6.23925
ltoes 23.781
431
root -1.52945 15.0305 2.29915 -174.874 -16.3819 -179.362
lowerback 3.53115 3.7393 3.46544
upperback -7.32572 5.10119 4.75242
thorax -9.90922 2.16931 2.57524
lowerneck -18.2521 -2.44019 -3.12049
upperneck 24.8265 -3.18853 0.157528
head 11.119 -1.97545 0.0602839
rclavicle -1.0138e-013 -5.56597e-014
rhumerus -22.3061 19.2375 -35.9312
rradius 133.163
rwrist -47.5291
rhand 45.1052 -5.02262
rfingers 7.12502
rthumb 66.467 -9.5508
lclavicle -1.0138e-013 -5.56597e-014
lhumerus 15.8761 21.6909 -2.29555
lradius 26.0164
lwrist 10.2594
lhand 17.1828 41.6691
lfingers 7.12502
lthumb 41.9022 426.292
rfemur -25.5284 -28.3748 22.2633
rtibia 72.6043
rfoot 0.34026 22.4813
rtoes 1.78567
lfemur -26.097 16.3795 -36.3146
ltibia 40.8089
lfoot -13.6674 -7.37104
ltoes 23.7514
432
root -1.59223 15.0565 2.3281 -174.618 -16.7673 -179.422
lowerback 3.31973 3.78614 3.50028
upperback -7.32765 5.14923 4.64417
thorax -9.77085 2.18991 2.44463
lowerneck -18.2745 -2.64193 -3.0583
upperneck 24.5949 -3.46117 0.129491
head 11.0397 -2.08648 0.00269582
rclavicle -9.89948e-014 -1.11319e-013
rhumerus -22.7288 17.4209 -35.9967
rradius 133.356
rwrist -48.5945
rhand 45.8796 -5.36264
rfingers 7.12502
rthumb 67.0509 -8.70629
lclavicle -9.89948e-014 -1.11319e-013
lhumerus 16.1936 22.2952 -1.81356
lradius 25.8491
lwrist 9.79186
lhand 17.1941 41.4419
lfingers 7.12502
lthumb 41.9128 426.061
rfemur -25.219 -28.3589 22.9413
rtibia 70.1023
rfoot 1.28659 21.0676
rtoes 2.20783
lfemur -26.2413 16.587 -36.6128
ltibia 40.595
lfoot -12.737 -8.61629
ltoes 24.084
433
root -1.65393 15.0804 2.35762 -174.377 -17.1817 -179.439
lowerback 3.09177 3.63523 3.52741
upperback -7.31919 4.92747 4.72628
thorax -9.62537 2.08219 2.55509
lowerneck -18.18 -2.65325 -3.36204
upperneck 24.3534 -3.40631 0.265456
head 10.9396 -2.06584 0.115787
rclavicle 0 -1.09729e-013
rhumerus -22.4951 16.0359 -36.126
rradius 133.313
rwrist -49.6488
rhand 46.5562 -5.71088
rfingers 7.12502
rthumb 67.5521 -7.9679
lclavicle 0 -1.09729e-013
lhumerus 15.5607 22.3875 -2.06176
lradius 25.8583
lwrist 9.88077
lhand 17.0582 41.4475
lfingers 7.12502
lthumb 41.7854 426.109
rfemur -24.8681 -28.2443 23.627
rtibia 67.3992
rfoot 2.15859 18.627
rtoes 3.58667
lfemur -26.4213 16.9715 -36.8641
ltibia 40.4711
lfoot -11.7801 -10.0392
ltoes 24.1593
434
root -1.71476 15.1026 2.38831 -174.114 -17.6296 -179.527
lowerback 2.87411 3.58041 3.48556
upperback -7.32495 4.83311 4.70321
thorax -9.5002 2.04051 2.57447
lowerneck -18.0759 -2.76447 -3.45388
upperneck 24.083 -3.52882 0.300404
head 10.8245 -2.11756 0.131196
rclavicle 6.14245e-014 6.83819e-014
rhumerus -22.7102 14.4221 -36.2058
rradius 133.444
rwrist -50.8545
rhand 47.0492 -6.26461
rfingers 7.12502
rthumb 67.9118 -7.69823
lclavicle 6.14245e-014 6.83819e-014
lhumerus 15.4008 22.5651 -1.99854
lradius 25.8248
lwrist 9.88582
lhand 16.9543 41.3801
lfingers 7.12502
lthumb 41.6879 426.074
rfemur -24.6046 -28.1912 24.1934
rtibia 64.7704
rfoot 2.59264 15.5921
rtoes 3.27635
lfemur -26.6452 17.328 -37.1606
ltibia 40.4363
lfoot -10.6943 -11.5423
ltoes 24.432
435
root -1.77559 15.1243 2.42117 -173.9 -18.0589 -179.538
lowerback 2.687 3.51697 3.5773
upperback -7.29734 4.739 4.65403
thorax -9.34253 1.98968 2.48976
lowerneck -18.0125 -2.87291 -3.53588
upperneck 23.7832 -3.66451 0.412924
head 10.7085 -2.1627 0.170903
rclavicle 1.51076e-014 -1.43125e-014
rhumerus -22.8272 12.7243 -36.4189
rradius 133.41
rwrist -51.9282
rhand 47.719 -6.68812
rfingers 7.12502
rthumb 68.3924 -6.95808
lclavicle 1.51076e-014 -1.43125e-014
lhumerus 15.1793 22.5696 -2.17863
lradius 25.827
lwrist 10.1251
lhand 16.7063 41.3348
lfingers 7.12502
lthumb 41.4553 426.105
rfemur -24.1563 -28.1724 24.7295
rtibia 62.6432
rfoot 2.64307 16.1071
rtoes 18.4024
lfemur -26.8934 17.788 -37.3402
ltibia 40.4723
lfoot -9.3405 -13.2027
ltoes 25.4096
436
root -1.8351 15.1532 2.45924 -173.658 -18.4844 -179.59
lowerback 2.57147 3.55452 3.60085
upperback -7.3118 4.78299 4.53072
thorax -9.27628 2.00865 2.34533
lowerneck -18.0247 -3.06391 -3.53602
upperneck 23.5944 -3.94439 0.523536
head 10.6499 -2.26882 0.172526
rclavicle -2.96189e-014 -4.92986e-014
rhumerus -23.267 10.9215 -36.5922
rradius 133.411
rwrist -53.0537
rhand 48.1456 -7.21565
rfingers 7.12502
rthumb 68.6935 -6.7166
lclavicle -2.96189e-014 -4.92986e-014
lhumerus 15.3559 22.6636 -2.07134
lradius 25.81
lwrist 10.1469
lhand 16.507 41.2464
lfingers 7.12502
lthumb 41.2682 426.077
rfemur -23.2017 -27.8821 24.8916
rtibia 61.4513
rfoot 0.886472 14.3853
rtoes 7.14469
lfemur -27.2258 18.4054 -37.5864
ltibia 40.5284
lfoot -8.11529 -14.8729
ltoes 21.9472
437
root -1.8951 15.1951 2.49702 -173.488 -18.9415 -179.534
lowerback 2.49325 3.43919 3.75197
upperback -7.31832 4.63016 4.55367
thorax -9.22355 1.92288 2.30598
lowerneck -17.8634 -3.12227 -3.79991
upperneck 23.3062 -3.97841 0.68653
head 10.5244 -2.28147 0.276129
rclavicle -3.65764e-014 -4.13472e-014
rhumerus -23.2097 9.36685 -36.6798
rradius 133.303
rwrist -54.2445
rhand 48.5525 -7.69395
rfingers 7.12502
rthumb 68.9768 -6.44045
lclavicle -3.65764e-014 -4.13472e-014
lhumerus 15.0194 22.7026 -2.23833
lradius 25.7808
lwrist 10.1112
lhand 16.0922 41.2951
lfingers 7.12502
lthumb 40.8787 426.25
rfemur -22.6797 -27.6943 25.1163
rtibia 60.6008
rfoot -0.246796 12.1579
rtoes 2.25963
lfemur -27.5417 18.9834 -37.5984
ltibia 40.7241
lfoot -6.2135 -16.7697
ltoes 23.9034
438
root -1.95292 15.2447 2.53393 -173.318 -19.4108 -179.543
lowerback 2.46961 3.36203 3.83268
upperback -7.30537 4.53256 4.47759
thorax -9.17942 1.87046 2.1905
lowerneck -17.8557 -3.22043 -3.85274
upperneck 23.0771 -4.1088 0.797835
head 10.4465 -2.32391 0.309156
rclavicle -1.98785e-014 3.18055e-014
rhumerus -23.3003 7.66992 -36.8795
rradius 133.159
rwrist -55.2343
rhand 49.0339 -7.93955
rfingers 7.12502
rthumb 69.3069 -5.76627
lclavicle -1.98785e-014 3.18055e-014
lhumerus 14.7918 22.4668 -2.59815
lradius 25.8439
lwrist 10.3911
lhand 15.6727 41.0594
lfingers 7.12502
lthumb 40.4845 426.137
rfemur -22.2993 -27.3335 25.2864
rtibia 59.8097
rfoot -3.00054 11.057
rtoes 1.88621
lfemur -27.943 19.6457 -37.5843
ltibia 41.1119
lfoot -3.84758 -18.7601
ltoes 25.3317
